<svg xmlns="http://www.w3.org/2000/svg" viewBox="60 320 240 180" class="fill-current" aria-hidden="true">
  <path d="M274.5,475.3c-3.7,5.6-6.5,12.4-14,12.4c-12.6,0-13.3-19.5-25.9-19.5s-11.9,19.5-24.6,19.5
    c-12.6,0-13.3-19.5-25.9-19.5s-11.9,19.5-24.6,19.5c-12.6,0-13.3-19.5-25.9-19.5s-11.9,19.5-24.6,19.5
    c-4,0-6.8-1.9-9.1-4.6c-9-15.7-14.2-34.1-14.2-53.8c0-57.6,44.5-104.4,99.4-104.4s99.4,46.7,99.4,104.4
    C284.6,445.9,281,461.5,274.5,475.3z" fill="currentColor"/>
  <path d="M253,485.7c26.1-38.8,26.7-81.8,2-129c18.3,18.8,29.6,44.5,29.6,72.9c0,16.4-3.8,31.9-10.5,45.8
    c-3.8,5.6-6.7,12.4-14.5,12.4C257,487.8,254.8,487,253,485.7z" fill="currentColor"/>
  <path d="M179.9,449.5c34.6,0,49.1-20.1,49.1-48.6c0-28.5-22-54.7-49.1-54.7s-49.1,26.2-49.1,54.7
    C130.7,429.4,145.3,449.5,179.9,449.5z" fill="#ffffff"/>
  <ellipse cx="166.6" cy="382.1" rx="18.4" ry="20.3" fill="currentColor"/>
  <ellipse cx="163.6" cy="377.4" rx="9.2" ry="9.4" fill="#ffffff"/>
</svg>

